HIERARCHY
ROOT hip
{
  OFFSET 0 0 0
  CHANNELS 6 Xposition Yposition Zposition Zrotation Yrotation Xrotation
  JOINT abdomen
  {
    OFFSET 0 20.6881 -0.73152
    CHANNELS 3 Zrotation Xrotation Yrotation
    JOINT chest
    {
      OFFSET 0 11.7043 -0.48768
      CHANNELS 3 Zrotation Xrotation Yrotation
      JOINT neck
      {
        OFFSET 0 22.1894 -2.19456
        CHANNELS 3 Zrotation Xrotation Yrotation
        JOINT head
        {
          OFFSET -0.24384 7.07133 1.2192
          CHANNELS 3 Zrotation Xrotation Yrotation
          JOINT leftEye
          {
            OFFSET 4.14528 8.04674 8.04672
            CHANNELS 3 Zrotation Xrotation Yrotation
            End Site
            {
              OFFSET 1 0 0
            }
          }
          JOINT rightEye
          {
            OFFSET -3.6576 8.04674 8.04672
            CHANNELS 3 Zrotation Xrotation Yrotation
            End Site
            {
              OFFSET 1 0 0
            }
          }
        }
      }
      JOINT rCollar
      {
        OFFSET -2.68224 19.2634 -4.8768
        CHANNELS 3 Zrotation Xrotation Yrotation
        JOINT rShldr
        {
          OFFSET -8.77824 -1.95073 1.46304
          CHANNELS 3 Zrotation Xrotation Yrotation
          JOINT rForeArm
          {
            OFFSET -28.1742 -1.7115 0.48768
            CHANNELS 3 Zrotation Xrotation Yrotation
            JOINT rHand
            {
              OFFSET -22.5879 0.773209 7.07136
              CHANNELS 3 Zrotation Xrotation Yrotation
              JOINT rThumb1
              {
                OFFSET -1.2192 -0.487915 3.41376
                CHANNELS 3 Zrotation Xrotation Yrotation
                JOINT rThumb2
                {
                  OFFSET -3.37035 -0.52449 3.41376
                  CHANNELS 3 Zrotation Xrotation Yrotation
                  End Site
                  {
                    OFFSET -1.78271 -1.18214 1.43049
                  }
                }
              }
              JOINT rIndex1
              {
                OFFSET -7.75947 0.938293 5.60832
                CHANNELS 3 Zrotation Xrotation Yrotation
                JOINT rIndex2
                {
                  OFFSET -2.54057 -0.884171 1.56538
                  CHANNELS 3 Zrotation Xrotation Yrotation
                  End Site
                  {
                    OFFSET -1.62519 -0.234802 1.16502
                  }
                }
              }
              JOINT rMid1
              {
                OFFSET -8.24714 1.18213 3.41376
                CHANNELS 3 Zrotation Xrotation Yrotation
                JOINT rMid2
                {
                  OFFSET -3.10165 -0.590103 1.0647
                  CHANNELS 3 Zrotation Xrotation Yrotation
                  End Site
                  {
                    OFFSET -2.48547 -0.328903 0.83742
                  }
                }
              }
              JOINT rRing1
              {
                OFFSET -8.82822 0.546677 1.51678
                CHANNELS 3 Zrotation Xrotation Yrotation
                JOINT rRing2
                {
                  OFFSET -2.60934 -0.819778 -0.0198488
                  CHANNELS 3 Zrotation Xrotation Yrotation
                  End Site
                  {
                    OFFSET -2.33842 -0.294052 0.168128
                  }
                }
              }
              JOINT rPinky1
              {
                OFFSET -8.27202 -0.0477905 -0.4584
                CHANNELS 3 Zrotation Xrotation Yrotation
                JOINT rPinky2
                {
                  OFFSET -1.82734 -0.647385 -0.700984
                  CHANNELS 3 Zrotation Xrotation Yrotation
                  End Site
                  {
                    OFFSET -1.69225 -0.51767 -0.607171
                  }
                }
              }
            }
          }
        }
      }
      JOINT lCollar
      {
        OFFSET 2.68224 19.2634 -4.8768
        CHANNELS 3 Zrotation Xrotation Yrotation
        JOINT lShldr
        {
          OFFSET 8.77824 -1.95073 1.46304
          CHANNELS 3 Zrotation Xrotation Yrotation
          JOINT lForeArm
          {
            OFFSET 28.1742 -1.7115 0.48768
            CHANNELS 3 Zrotation Xrotation Yrotation
            JOINT lHand
            {
              OFFSET 22.5879 0.773209 7.07136
              CHANNELS 3 Zrotation Xrotation Yrotation
              JOINT lThumb1
              {
                OFFSET 1.2192 -0.487915 3.41376
                CHANNELS 3 Zrotation Xrotation Yrotation
                JOINT lThumb2
                {
                  OFFSET 3.37035 -0.52449 3.41376
                  CHANNELS 3 Zrotation Xrotation Yrotation
                  End Site
                  {
                    OFFSET 1.78271 -1.18214 1.43049
                  }
                }
              }
              JOINT lIndex1
              {
                OFFSET 7.75947 0.938293 5.60832
                CHANNELS 3 Zrotation Xrotation Yrotation
                JOINT lIndex2
                {
                  OFFSET 2.54057 -0.884171 1.56538
                  CHANNELS 3 Zrotation Xrotation Yrotation
                  End Site
                  {
                    OFFSET 1.62519 -0.234802 1.16502
                  }
                }
              }
              JOINT lMid1
              {
                OFFSET 8.24714 1.18213 3.41376
                CHANNELS 3 Zrotation Xrotation Yrotation
                JOINT lMid2
                {
                  OFFSET 3.10165 -0.590103 1.0647
                  CHANNELS 3 Zrotation Xrotation Yrotation
                  End Site
                  {
                    OFFSET 2.48547 -0.328903 0.83742
                  }
                }
              }
              JOINT lRing1
              {
                OFFSET 8.82822 0.546677 1.51678
                CHANNELS 3 Zrotation Xrotation Yrotation
                JOINT lRing2
                {
                  OFFSET 2.60934 -0.819778 -0.0198488
                  CHANNELS 3 Zrotation Xrotation Yrotation
                  End Site
                  {
                    OFFSET 2.33842 -0.294052 0.168128
                  }
                }
              }
              JOINT lPinky1
              {
                OFFSET 8.27202 -0.0477905 -0.4584
                CHANNELS 3 Zrotation Xrotation Yrotation
                JOINT lPinky2
                {
                  OFFSET 1.82734 -0.647385 -0.700984
                  CHANNELS 3 Zrotation Xrotation Yrotation
                  End Site
                  {
                    OFFSET 1.69225 -0.51767 -0.607171
                  }
                }
              }
            }
          }
        }
      }
    }
  }
  JOINT rButtock
  {
    OFFSET -8.77824 4.35084 1.2192
    CHANNELS 3 Zrotation Xrotation Yrotation
    JOINT rThigh
    {
      OFFSET 0 -1.70687 -2.19456
      CHANNELS 3 Zrotation Xrotation Yrotation
      JOINT rShin
      {
        OFFSET 0 -36.8199 0.73152
        CHANNELS 3 Zrotation Xrotation Yrotation
        JOINT rFoot
        {
          OFFSET 0.73152 -45.1104 -5.12064
          CHANNELS 3 Zrotation Xrotation Yrotation
          End Site
          {
            OFFSET -1.1221 -3.69964 12.103
          }
        }
      }
    }
  }
  JOINT lButtock
  {
    OFFSET 8.77824 4.35084 1.2192
    CHANNELS 3 Zrotation Xrotation Yrotation
    JOINT lThigh
    {
      OFFSET 0 -1.70687 -2.19456
      CHANNELS 3 Zrotation Xrotation Yrotation
      JOINT lShin
      {
        OFFSET 0 -36.8199 0.73152
        CHANNELS 3 Zrotation Xrotation Yrotation
        JOINT lFoot
        {
          OFFSET -0.73152 -45.1104 -5.12064
          CHANNELS 3 Zrotation Xrotation Yrotation
          End Site
          {
            OFFSET 1.1221 -3.69964 12.103
          }
        }
      }
    }
  }
}
MOTION
Frames:	4
Frame Time:	0.00833333
49.3278 85.5069 -149.421 0.0 0.0 0.0 2.23594 -0.000459339 0.0604482 0.615863 0.0089749 0.106602 1.04278e-15 0.0 -5.96354e-16 3.21472e-15 3.18055e-15 -1.66793e-15 -0.0 0.0 0.0 -0.0 0.0 0.0 3.95956e-16 -5.22198e-17 -9.93923e-17 1.23211e-14 -1.2424e-15 -4.96962e-15 1.79304e-13 -9.08446e-14 -1.20861e-13 2.09648e-12 -1.51573e-13 -1.14182e-12 4.94478e-12 -5.24996e-13 -2.72255e-12 8.53064e-12 -9.09639e-13 -4.69688e-12 4.95173e-12 -5.23201e-13 -2.72892e-12 7.73091 5.47488 0.417314 4.94467e-12 -5.2509e-13 -2.71937e-12 2.90554 0.965183 0.102902 4.94866e-12 -5.25189e-13 -2.71858e-12 10.2786 0.731801 0.0259123 4.93602e-12 -5.22804e-13 -2.70983e-12 2.22167 -0.733487 -0.20892 2.99819e-16 -5.31904e-17 -3.97569e-16 8.36099e-15 -1.11816e-15 -6.36111e-15 1.86311e-13 1.33186e-14 -1.24042e-13 2.0883e-12 -2.5032e-13 -1.11956e-12 4.94496e-12 -5.12656e-13 -2.70983e-12 8.55569e-12 -8.90555e-13 -4.67383e-12 4.9394e-12 -5.10081e-13 -2.70029e-12 -7.73091 5.47488 -0.417314 4.94546e-12 -5.12864e-13 -2.70983e-12 -2.90554 0.965183 -0.102902 4.93613e-12 -5.12367e-13 -2.70745e-12 -10.2786 0.731801 -0.0259123 4.94735e-12 -5.12467e-13 -2.72255e-12 -2.22167 -0.733487 0.20892 -2.03217e-16 0.0 -3.88251e-19 2.21185 -7.80169 -0.22426 0.00521972 8.55967 0.135865 -0.54895 -0.766583 0.0462488 2.03217e-16 0.0 3.88251e-19 1.18573 -1.92859 -0.00257109 0.00907839 -2.07858 0.0748695 0.511928 3.99847 -0.140302
43.8159 85.0533 -155.313 12.181 -85.9597 -8.8196 1.79177 -2.48486 1.35615 0.153845 1.18746 0.509797 0.858193 4.46565 1.32122 0.0980943 -8.53909 2.67678 -0.0 0.0 0.0 -0.0 0.0 0.0 1.93695e-14 3.01919e-13 4.43527e-14 14.9743 2.85994 -1.01437 -3.57393 -1.51298 5.69751 0.0345674 4.12712 0.57461 -4.03277e-10 -7.24883e-10 2.72349e-10 -6.93423e-10 -1.25272e-09 4.76357e-10 -4.03272e-10 -7.24884e-10 2.72342e-10 7.73091 5.47488 0.417314 -4.03277e-10 -7.24882e-10 2.72352e-10 2.90554 0.965183 0.102902 -4.03274e-10 -7.24882e-10 2.72353e-10 10.2786 0.731801 0.0259123 -4.03285e-10 -7.24879e-10 2.7236e-10 2.22167 -0.733487 -0.20892 1.92512e-14 3.01919e-13 4.41271e-14 -12.0262 9.67788 -2.63164 3.84173 -1.67656 -6.07328 -0.00107024 -0.733491 0.103056 -1.7862e-10 2.54136e-10 2.00327e-11 -3.08325e-10 4.37882e-10 3.38316e-11 -1.78626e-10 2.54138e-10 2.00441e-11 -7.73091 5.47488 -0.417314 -1.7862e-10 2.54134e-10 2.00346e-11 -2.90554 0.965183 -0.102902 -1.78627e-10 2.54134e-10 2.00357e-11 -10.2786 0.731801 -0.0259123 -1.78618e-10 2.54135e-10 2.00218e-11 -2.22167 -0.733487 0.20892 -2.03217e-16 0.0 -3.88251e-19 -0.0907242 -5.3316 3.62498 0.0033954 7.88461 0.0944719 -1.28537 -7.60823 -7.71209 2.03217e-16 0.0 3.88251e-19 5.52935 -0.237473 -1.29101 0.0013764 -2.17524 0.0100809 0.694985 -2.06207 2.05678
43.8842 85.0578 -155.472 6.5569 -86.1276 -3.2053 1.43457 -5.10418 2.73834 -0.355097 2.43443 0.938268 1.54663 9.18576 2.74373 1.09715 -17.5201 5.70668 -0.0 0.0 0.0 -0.0 0.0 0.0 4.06398e-14 6.40818e-13 9.45687e-14 31.0668 5.89687 -2.12606 -7.04775 -3.07553 11.7678 -0.0197653 8.47803 1.19056 -8.63796e-10 -1.57101e-09 6.02321e-10 -1.48503e-09 -2.71447e-09 1.05303e-09 -8.63795e-10 -1.57102e-09 6.02313e-10 7.73091 5.47488 0.417314 -8.63797e-10 -1.57101e-09 6.02325e-10 2.90554 0.965183 0.102902 -8.63794e-10 -1.57101e-09 6.02326e-10 10.2786 0.731801 0.0259123 -8.63804e-10 -1.57101e-09 6.02331e-10 2.22167 -0.733487 -0.20892 4.04981e-14 6.40818e-13 9.44227e-14 -23.837 19.8656 -5.67919 7.52496 -3.39017 -12.5199 0.000673835 -1.49658 0.210328 -3.95584e-10 5.55493e-10 4.21795e-11 -6.82906e-10 9.57205e-10 7.11733e-11 -3.9559e-10 5.55494e-10 4.21928e-11 -7.73091 5.47488 -0.417314 -3.95585e-10 5.55488e-10 4.21835e-11 -2.90554 0.965183 -0.102902 -3.9559e-10 5.55488e-10 4.21832e-11 -10.2786 0.731801 -0.0259123 -3.95583e-10 5.5549e-10 4.21706e-11 -2.22167 -0.733487 0.20892 -2.03217e-16 0.0 -3.88251e-19 -2.89758 -2.71099 7.65471 0.000400639 7.1711 0.0508873 -4.10759 -14.401 -16.2937 2.03217e-16 0.0 3.88251e-19 10.1953 1.55053 -2.64072 -0.00699203 -2.27609 -0.0584254 1.39722 -8.42551 4.4281
43.9326 85.0509 -155.583 2.4027 -86.4048 1.0267 1.24269 -7.43799 3.97725 -0.82003 3.54363 1.31838 1.94263 13.3681 4.06187 2.89576 -25.3813 8.79607 -0.0 0.0 0.0 -0.0 0.0 0.0 5.73165e-14 9.05862e-13 1.33257e-13 45.2294 8.56901 -3.07367 -9.83177 -4.35973 17.1377 -0.149627 12.3763 1.76028 -1.21972e-09 -2.1736e-09 8.22492e-10 -2.09733e-09 -3.75633e-09 1.43847e-09 -1.21972e-09 -2.17361e-09 8.22483e-10 7.73091 5.47488 0.417314 -1.21972e-09 -2.1736e-09 8.22496e-10 2.90554 0.965183 0.102902 -1.21972e-09 -2.1736e-09 8.22496e-10 10.2786 0.731801 0.0259123 -1.21973e-09 -2.17359e-09 8.225e-10 2.22167 -0.733487 -0.20892 5.71538e-14 9.05862e-13 1.33176e-13 -33.103 28.7708 -8.88683 10.4757 -4.80408 -18.2785 0.00471006 -2.20045 0.309371 -5.45749e-10 7.63433e-10 6.55179e-11 -9.42086e-10 1.31543e-09 1.10842e-10 -5.45755e-10 7.63434e-10 6.55329e-11 -7.73091 5.47488 -0.417314 -5.45751e-10 7.63427e-10 6.55236e-11 -2.90554 0.965183 -0.102902 -5.45753e-10 7.63427e-10 6.55221e-11 -10.2786 0.731801 -0.0259123 -5.45748e-10 7.63429e-10 6.55106e-11 -2.22167 -0.733487 0.20892 -2.03217e-16 0.0 -3.88251e-19 -5.68587 -0.415017 11.2725 -0.00319717 6.53447 0.0121122 -8.43267 -19.7105 -24.5481 2.03217e-16 0.0 3.88251e-19 14.4448 3.13741 -3.87367 -0.0146839 -2.36853 -0.119522 2.48429 -14.0956 6.64726
